<svg width="12" height="12" viewBox="0 0 12 12" fill="none" xmlns="http://www.w3.org/2000/svg">
<g clip-path="url(#clip0_109_2745)">
<path d="M12 6.03652C12 2.70202 9.31354 -0.000976562 6.00004 -0.000976562C2.68503 -0.000226562 -0.00146484 2.70202 -0.00146484 6.03727C-0.00146484 9.05002 2.19304 11.5475 5.06104 12.0005V7.78177H3.53854V6.03727H5.06254V4.70602C5.06254 3.19327 5.95879 2.35777 7.32904 2.35777C7.98604 2.35777 8.67229 2.47552 8.67229 2.47552V3.96052H7.91553C7.17078 3.96052 6.93829 4.42627 6.93829 4.90402V6.03652H8.60178L8.33628 7.78102H6.93754V11.9998C9.80554 11.5468 12 9.04927 12 6.03652Z" fill="#EF3636"/>
</g>
<defs>
<clipPath id="clip0_109_2745">
<rect width="12" height="12" fill="white"/>
</clipPath>
</defs>
</svg>
