<svg width="20" height="21" viewBox="0 0 20 21" fill="none" xmlns="http://www.w3.org/2000/svg">
<path d="M15.625 8.53125C15.625 6.96482 15.0324 5.46254 13.9775 4.3549C12.9226 3.24726 11.4918 2.625 10 2.625C8.50816 2.625 7.07742 3.24726 6.02252 4.3549C4.96763 5.46254 4.375 6.96482 4.375 8.53125C4.375 10.9541 6.22125 14.112 10 17.8946C13.7788 14.112 15.625 10.9541 15.625 8.53125ZM10 19.6875C5.41625 15.3129 3.125 11.5933 3.125 8.53125C3.125 6.61672 3.84933 4.7806 5.13864 3.42682C6.42795 2.07304 8.17664 1.3125 10 1.3125C11.8234 1.3125 13.572 2.07304 14.8614 3.42682C16.1507 4.7806 16.875 6.61672 16.875 8.53125C16.875 11.5933 14.5837 15.3129 10 19.6875Z" fill="#EF9323"/>
<path d="M10 10.5C10.4973 10.5 10.9742 10.2926 11.3258 9.92337C11.6775 9.55415 11.875 9.05339 11.875 8.53125C11.875 8.0091 11.6775 7.50835 11.3258 7.13913C10.9742 6.76992 10.4973 6.5625 10 6.5625C9.50272 6.5625 9.02581 6.76992 8.67417 7.13913C8.32254 7.50835 8.125 8.0091 8.125 8.53125C8.125 9.05339 8.32254 9.55415 8.67417 9.92337C9.02581 10.2926 9.50272 10.5 10 10.5ZM10 11.8125C9.1712 11.8125 8.37634 11.4668 7.79029 10.8514C7.20424 10.2361 6.875 9.40149 6.875 8.53125C6.875 7.66101 7.20424 6.82641 7.79029 6.21106C8.37634 5.5957 9.1712 5.25 10 5.25C10.8288 5.25 11.6237 5.5957 12.2097 6.21106C12.7958 6.82641 13.125 7.66101 13.125 8.53125C13.125 9.40149 12.7958 10.2361 12.2097 10.8514C11.6237 11.4668 10.8288 11.8125 10 11.8125Z" fill="#EF9323"/>
</svg>
