<svg width="12" height="12" viewBox="0 0 12 12" fill="none" xmlns="http://www.w3.org/2000/svg">
<path d="M3 2.25C2.60218 2.25 2.22064 2.40804 1.93934 2.68934C1.65804 2.97064 1.5 3.35218 1.5 3.75V3.90075L6 6.324L10.5 3.9015V3.75C10.5 3.35218 10.342 2.97064 10.0607 2.68934C9.77936 2.40804 9.39782 2.25 9 2.25H3ZM10.5 4.75275L6.17775 7.08C6.12312 7.10941 6.06204 7.1248 6 7.1248C5.93796 7.1248 5.87688 7.10941 5.82225 7.08L1.5 4.75275V8.25C1.5 8.64782 1.65804 9.02936 1.93934 9.31066C2.22064 9.59196 2.60218 9.75 3 9.75H9C9.39782 9.75 9.77936 9.59196 10.0607 9.31066C10.342 9.02936 10.5 8.64782 10.5 8.25V4.75275Z" fill="#EF3636"/>
</svg>
