<svg width="20" height="21" viewBox="0 0 20 21" fill="none" xmlns="http://www.w3.org/2000/svg">
<path d="M2.44671 3.67699L2.47347 3.65944L5.856 1.90967L9.5069 7.02091L7.82722 9.37263C7.87748 10.2595 8.23568 11.0963 8.834 11.7245C9.43232 12.3527 10.2292 12.7288 11.0739 12.7816L13.3136 11.0179L18.1814 14.8513L16.5288 18.3733L16.5149 18.403L16.4982 18.431C16.41 18.5803 16.2869 18.7033 16.1406 18.7884C15.9943 18.8735 15.8297 18.9179 15.6625 18.9174H14.7897C13.108 18.9174 11.4427 18.5696 9.88899 17.8938C8.33528 17.2181 6.92354 16.2276 5.73439 14.979C4.54523 13.7304 3.60194 12.2481 2.95838 10.6167C2.31482 8.98526 1.98358 7.23674 1.98358 5.47093V4.55444C1.98305 4.37884 2.02533 4.20602 2.10639 4.05243C2.18746 3.89884 2.30462 3.76959 2.44671 3.67699ZM3.23358 5.47093C3.23358 12.1616 8.41765 17.6049 14.7897 17.6049H15.4959L16.6016 15.248L13.3133 12.6585L11.4826 14.1001H11.2743C10.0274 14.0987 8.83192 13.5779 7.95022 12.6521C7.06851 11.7263 6.57256 10.4711 6.57116 9.16185V8.94311L7.94417 7.02087L5.47823 3.56838L3.23358 4.72957V5.47093Z" fill="#EF9323"/>
</svg>
