<svg width="12" height="12" viewBox="0 0 12 12" fill="none" xmlns="http://www.w3.org/2000/svg">
<path d="M10.2434 8.57012L8.2109 6.72212C8.11482 6.6348 7.98857 6.58822 7.8588 6.59224C7.72903 6.59625 7.6059 6.65053 7.5154 6.74362L6.3189 7.97412C6.0309 7.91912 5.4519 7.73862 4.8559 7.14412C4.2599 6.54762 4.0794 5.96712 4.0259 5.68112L5.2554 4.48412C5.3486 4.39368 5.40296 4.27053 5.40698 4.14072C5.41099 4.01092 5.36434 3.88464 5.2769 3.78862L3.4294 1.75662C3.34192 1.6603 3.22034 1.60187 3.09047 1.59375C2.96061 1.58563 2.8327 1.62845 2.7339 1.71312L1.6489 2.64362C1.56245 2.73038 1.51086 2.84584 1.5039 2.96812C1.4964 3.09312 1.3534 6.05412 3.6494 8.35112C5.6524 10.3536 8.1614 10.5001 8.8524 10.5001C8.9534 10.5001 9.0154 10.4971 9.0319 10.4961C9.15415 10.4893 9.26956 10.4375 9.3559 10.3506L10.2859 9.26512C10.3709 9.16664 10.414 9.03882 10.4061 8.90897C10.3982 8.77912 10.3398 8.65751 10.2434 8.57012Z" fill="#EF3636"/>
</svg>
