<svg width="91" height="42" viewBox="0 0 91 42" fill="none" xmlns="http://www.w3.org/2000/svg">
<path d="M64.7561 32.224C63.2628 32.224 61.9188 31.968 60.7241 31.456C59.5295 30.9227 58.5908 30.176 57.9081 29.216C57.2255 28.256 56.8841 27.136 56.8841 25.856H60.7881C60.8735 26.816 61.2468 27.6053 61.9081 28.224C62.5908 28.8427 63.5401 29.152 64.7561 29.152C66.0148 29.152 66.9961 28.8533 67.7001 28.256C68.4041 27.6373 68.7561 26.848 68.7561 25.888C68.7561 25.1413 68.5321 24.5333 68.0841 24.064C67.6575 23.5947 67.1135 23.232 66.4521 22.976C65.8121 22.72 64.9161 22.4427 63.7641 22.144C62.3135 21.76 61.1295 21.376 60.2121 20.992C59.3161 20.5867 58.5481 19.968 57.9081 19.136C57.2681 18.304 56.9481 17.1947 56.9481 15.808C56.9481 14.528 57.2681 13.408 57.9081 12.448C58.5481 11.488 59.4441 10.752 60.5961 10.24C61.7481 9.728 63.0815 9.472 64.5961 9.472C66.7508 9.472 68.5108 10.016 69.8761 11.104C71.2628 12.1707 72.0308 13.6427 72.1801 15.52H68.1481C68.0841 14.7093 67.7001 14.016 66.9961 13.44C66.2921 12.864 65.3641 12.576 64.2121 12.576C63.1668 12.576 62.3135 12.8427 61.6521 13.376C60.9908 13.9093 60.6601 14.6773 60.6601 15.68C60.6601 16.3627 60.8628 16.928 61.2681 17.376C61.6948 17.8027 62.2281 18.144 62.8681 18.4C63.5081 18.656 64.3828 18.9333 65.4921 19.232C66.9641 19.6373 68.1588 20.0427 69.0761 20.448C70.0148 20.8533 70.8041 21.4827 71.4441 22.336C72.1055 23.168 72.4361 24.288 72.4361 25.696C72.4361 26.8267 72.1268 27.8933 71.5081 28.896C70.9108 29.8987 70.0255 30.7093 68.8521 31.328C67.7001 31.9253 66.3348 32.224 64.7561 32.224Z" fill="#5A5A5B"/>
<path d="M80.2386 12.704V19.232H87.9186V22.208H80.2386V29.024H88.8786V32H76.5906V9.728H88.8786V12.704H80.2386Z" fill="#EF9323"/>
<path d="M7.76045 33.4916C7.19437 33.2154 6.67639 32.9623 6.15918 32.7095C7.10735 30.7026 9.00025 29.6369 10.9717 30.0748C15.5323 31.0878 19.4104 28.0661 20.1893 23.3182C20.4205 21.9087 20.4896 20.462 20.8297 19.0824C22.3441 12.9389 27.2863 9.32522 33.5039 9.73013C39.0648 10.0923 43.8021 14.7442 44.5651 20.5919C45.2035 25.4847 42.6549 30.5023 38.3036 32.9191C33.9793 35.321 28.5943 34.8307 24.9116 31.6998C23.4466 30.4543 23.4461 30.454 24.3085 28.7537C24.677 28.0272 25.0483 27.302 25.4535 26.5072C25.9342 27.0249 26.3492 27.5116 26.8045 27.9559C30.4586 31.5218 36.2477 30.9471 39.1618 26.7368C41.0073 24.0704 41.1345 20.5202 39.3851 17.7816C37.5396 14.8925 34.8875 13.4522 31.493 13.8956C28.0445 14.346 25.6491 16.2874 24.7278 19.7715C24.39 21.0487 24.4064 22.4193 24.2164 23.7407C23.399 29.4254 19.3825 33.5243 13.7888 34.3231C11.74 34.6157 9.73415 34.3027 7.76045 33.4916Z" fill="#5A5A5B"/>
<path d="M15.5734 14.5364C12.6643 13.2559 9.93164 13.6241 7.45427 15.425C4.84613 17.3209 3.84906 20.0393 4.15054 23.2478C4.39875 25.8895 4.15772 26.4667 1.8675 28.1423C1.71616 27.9223 1.54331 27.7142 1.41664 27.4804C-0.596011 23.7646 -0.361951 20.0213 1.47373 16.3606C5.17319 8.98303 14.8639 7.44343 20.6342 13.2494C21.0431 13.6608 21.1229 13.9824 20.8356 14.5064C20.2859 15.5089 19.8108 16.5535 19.3637 17.461C18.1171 16.4938 16.8693 15.5257 15.5734 14.5364Z" fill="#5A5A5B"/>
<path d="M7.47769 24.9927C8.21736 24.2487 8.9136 23.5305 9.63084 22.8347C10.0067 22.47 10.4286 22.1971 10.9989 22.3941C11.9424 22.7198 12.2453 23.6991 11.5864 24.4544C11.0364 25.0848 10.4274 25.6622 9.84219 26.2608C7.7775 28.3724 5.71352 30.4848 3.64434 32.5919C3.38449 32.8565 3.11553 33.1209 2.81515 33.3334C2.26623 33.7218 1.71669 33.6495 1.25512 33.1734C0.787201 32.6908 0.705227 32.1542 1.08779 31.5884C1.26921 31.3201 1.48721 31.0726 1.71414 30.8415C3.62041 28.9003 5.53259 26.965 7.47769 24.9927Z" fill="#EF9323"/>
</svg>
