<svg width="12" height="12" viewBox="0 0 12 12" fill="none" xmlns="http://www.w3.org/2000/svg">
<path d="M11.8215 2.46829C11.404 2.65329 10.9555 2.77829 10.484 2.83479C10.9705 2.54369 11.3345 2.08553 11.508 1.54579C11.0509 1.81729 10.5507 2.00839 10.029 2.11079C9.6782 1.73623 9.21354 1.48796 8.70717 1.40453C8.2008 1.32111 7.68105 1.40719 7.22862 1.64942C6.7762 1.89165 6.41639 2.27648 6.20508 2.74415C5.99377 3.21182 5.94277 3.73617 6.06001 4.23579C5.13385 4.18929 4.22782 3.94857 3.40072 3.52925C2.57362 3.10992 1.84393 2.52137 1.25901 1.80179C1.05901 2.14679 0.944006 2.54679 0.944006 2.97279C0.943783 3.35629 1.03822 3.73392 1.21895 4.07216C1.39967 4.41041 1.66109 4.69881 1.98001 4.91179C1.61014 4.90003 1.24844 4.80009 0.925006 4.62029V4.65029C0.924969 5.18816 1.11102 5.70948 1.4516 6.12579C1.79217 6.5421 2.26629 6.82776 2.79351 6.93429C2.4504 7.02715 2.09067 7.04083 1.74151 6.97429C1.89025 7.4371 2.18 7.84181 2.57019 8.13176C2.96038 8.42171 3.43146 8.58238 3.91751 8.59129C3.09242 9.239 2.07345 9.59034 1.02451 9.58879C0.838696 9.58884 0.653044 9.57799 0.468506 9.55629C1.53324 10.2409 2.77268 10.6042 4.03851 10.6028C8.32351 10.6028 10.666 7.05379 10.666 3.97579C10.666 3.87579 10.6635 3.77479 10.659 3.67479C11.1147 3.34528 11.508 2.93724 11.8205 2.46979L11.8215 2.46829Z" fill="#EF3636"/>
</svg>
